# xmcd
#
# Track frame offsets:
#	150
#	12221
#	26048
#	44054
#	58243
#	77017
#	92711
#	110244
#	124406
#	139069
#	154038
#	167057
#	182151
#	201132
#	217327
#	235458
#	251612
#	267627
#	283626
#	297104
#	312686
#
# Disc length: 4400 seconds
#
# Revision: 0
# Processed by: cddbd v1.5.1PL2 Copyright (c) Steve Scherf et al.
# Submitted via: audiograbber 1.83.01
#
DISCID=52112e15
DTITLE=Jools Holland - Swinging The Blues Dancing The Ska
DYEAR=1900
DGENRE=Blues
TTITLE0=Mr Robert's Roost
TTITLE1=Juice Head Blues - With Sam Brown
TTITLE2=Feeling Fine 
TTITLE3=You Don't Love Me
TTITLE4=Seven Acts Of Mercy
TTITLE5=Roll This Soul Tonight
TTITLE6=Dancing Mood
TTITLE7=Casbah Blues
TTITLE8=DoubleO Boogie
TTITLE9=Just One More Time
TTITLE10=My Country Man
TTITLE11=Everybody Needs Somebody
TTITLE12=Riffin With The Griffin
TTITLE13=After Hours
TTITLE14=Sent For You Yesterday
TTITLE15=Blowin' In The Wind
TTITLE16=Be My Guest
TTITLE17=Where In The World
TTITLE18=Sxth Avenue Express
TTITLE19=Somethings Going On
TTITLE20=We Shed A Tear
EXTD=
EXTT0=
EXTT1=
EXTT2=
EXTT3=
EXTT4=
EXTT5=
EXTT6=
EXTT7=
EXTT8=
EXTT9=
EXTT10=
EXTT11=
EXTT12=
EXTT13=
EXTT14=
EXTT15=
EXTT16=
EXTT17=
EXTT18=
EXTT19=
EXTT20=
PLAYORDER=
